<mxfile host="app.diagrams.net" modified="2024-05-01T14:40:09.253Z" agent="Mozilla/5.0 (Windows NT 10.0; Win64; x64) AppleWebKit/537.36 (KHTML, like Gecko) Chrome/124.0.0.0 Safari/537.36" etag="s19TPaTpjEN97_DisrRK" version="21.6.9" type="device">
  <diagram name="Page-1" id="Z_xAKoMFuUHzGGY7grGG">
    <mxGraphModel dx="1434" dy="728" grid="1" gridSize="10" guides="1" tooltips="1" connect="1" arrows="1" fold="1" page="1" pageScale="1" pageWidth="827" pageHeight="1169" math="0" shadow="0">
      <root>
        <mxCell id="0" />
        <mxCell id="1" parent="0" />
        <mxCell id="1bNmqHEBgj97bwQaU2J8-1" value="signUp" style="swimlane;fontStyle=1;align=center;verticalAlign=top;childLayout=stackLayout;horizontal=1;startSize=26;horizontalStack=0;resizeParent=1;resizeParentMax=0;resizeLast=0;collapsible=1;marginBottom=0;whiteSpace=wrap;html=1;" parent="1" vertex="1">
          <mxGeometry x="200" y="170" width="160" height="170" as="geometry" />
        </mxCell>
        <mxCell id="KDYL_TLp4vgdS7d9_X7m-3" value="" style="endArrow=classic;html=1;rounded=0;" edge="1" parent="1bNmqHEBgj97bwQaU2J8-1" target="KDYL_TLp4vgdS7d9_X7m-9">
          <mxGeometry width="50" height="50" relative="1" as="geometry">
            <mxPoint x="160" y="50" as="sourcePoint" />
            <mxPoint x="240" y="50" as="targetPoint" />
          </mxGeometry>
        </mxCell>
        <mxCell id="1bNmqHEBgj97bwQaU2J8-2" value="- name String&lt;br&gt;- surname String&lt;br&gt;- email String&lt;br&gt;- password String&lt;br&gt;- role String&lt;br&gt;- company String&lt;br&gt;" style="text;strokeColor=none;fillColor=none;align=left;verticalAlign=top;spacingLeft=4;spacingRight=4;overflow=hidden;rotatable=0;points=[[0,0.5],[1,0.5]];portConstraint=eastwest;whiteSpace=wrap;html=1;" parent="1bNmqHEBgj97bwQaU2J8-1" vertex="1">
          <mxGeometry y="26" width="160" height="94" as="geometry" />
        </mxCell>
        <mxCell id="1bNmqHEBgj97bwQaU2J8-3" value="" style="line;strokeWidth=1;fillColor=none;align=left;verticalAlign=middle;spacingTop=-1;spacingLeft=3;spacingRight=3;rotatable=0;labelPosition=right;points=[];portConstraint=eastwest;strokeColor=inherit;" parent="1bNmqHEBgj97bwQaU2J8-1" vertex="1">
          <mxGeometry y="120" width="160" height="8" as="geometry" />
        </mxCell>
        <mxCell id="1bNmqHEBgj97bwQaU2J8-4" value="+ registerUser() void&lt;br&gt;- validateInput() bool" style="text;strokeColor=none;fillColor=none;align=left;verticalAlign=top;spacingLeft=4;spacingRight=4;overflow=hidden;rotatable=0;points=[[0,0.5],[1,0.5]];portConstraint=eastwest;whiteSpace=wrap;html=1;" parent="1bNmqHEBgj97bwQaU2J8-1" vertex="1">
          <mxGeometry y="128" width="160" height="42" as="geometry" />
        </mxCell>
        <mxCell id="KDYL_TLp4vgdS7d9_X7m-9" value="login" style="swimlane;fontStyle=1;align=center;verticalAlign=top;childLayout=stackLayout;horizontal=1;startSize=26;horizontalStack=0;resizeParent=1;resizeParentMax=0;resizeLast=0;collapsible=1;marginBottom=0;whiteSpace=wrap;html=1;" vertex="1" parent="1">
          <mxGeometry x="480" y="201" width="160" height="130" as="geometry" />
        </mxCell>
        <mxCell id="KDYL_TLp4vgdS7d9_X7m-10" value="- email String&lt;br&gt;- password String&lt;br&gt;" style="text;strokeColor=none;fillColor=none;align=left;verticalAlign=top;spacingLeft=4;spacingRight=4;overflow=hidden;rotatable=0;points=[[0,0.5],[1,0.5]];portConstraint=eastwest;whiteSpace=wrap;html=1;" vertex="1" parent="KDYL_TLp4vgdS7d9_X7m-9">
          <mxGeometry y="26" width="160" height="34" as="geometry" />
        </mxCell>
        <mxCell id="KDYL_TLp4vgdS7d9_X7m-11" value="" style="line;strokeWidth=1;fillColor=none;align=left;verticalAlign=middle;spacingTop=-1;spacingLeft=3;spacingRight=3;rotatable=0;labelPosition=right;points=[];portConstraint=eastwest;strokeColor=inherit;" vertex="1" parent="KDYL_TLp4vgdS7d9_X7m-9">
          <mxGeometry y="60" width="160" height="28" as="geometry" />
        </mxCell>
        <mxCell id="KDYL_TLp4vgdS7d9_X7m-12" value="+ verifyUser() void&lt;br&gt;+ redirectUser() void" style="text;strokeColor=none;fillColor=none;align=left;verticalAlign=top;spacingLeft=4;spacingRight=4;overflow=hidden;rotatable=0;points=[[0,0.5],[1,0.5]];portConstraint=eastwest;whiteSpace=wrap;html=1;" vertex="1" parent="KDYL_TLp4vgdS7d9_X7m-9">
          <mxGeometry y="88" width="160" height="42" as="geometry" />
        </mxCell>
        <mxCell id="KDYL_TLp4vgdS7d9_X7m-13" value="admin" style="swimlane;fontStyle=1;align=center;verticalAlign=top;childLayout=stackLayout;horizontal=1;startSize=26;horizontalStack=0;resizeParent=1;resizeParentMax=0;resizeLast=0;collapsible=1;marginBottom=0;whiteSpace=wrap;html=1;" vertex="1" parent="1">
          <mxGeometry x="20" y="390" width="250" height="170" as="geometry" />
        </mxCell>
        <mxCell id="KDYL_TLp4vgdS7d9_X7m-14" value="- applications Javascript Object&lt;br&gt;- activeAdverts Javascript Object" style="text;strokeColor=none;fillColor=none;align=left;verticalAlign=top;spacingLeft=4;spacingRight=4;overflow=hidden;rotatable=0;points=[[0,0.5],[1,0.5]];portConstraint=eastwest;whiteSpace=wrap;html=1;" vertex="1" parent="KDYL_TLp4vgdS7d9_X7m-13">
          <mxGeometry y="26" width="250" height="44" as="geometry" />
        </mxCell>
        <mxCell id="KDYL_TLp4vgdS7d9_X7m-15" value="" style="line;strokeWidth=1;fillColor=none;align=left;verticalAlign=middle;spacingTop=-1;spacingLeft=3;spacingRight=3;rotatable=0;labelPosition=right;points=[];portConstraint=eastwest;strokeColor=inherit;" vertex="1" parent="KDYL_TLp4vgdS7d9_X7m-13">
          <mxGeometry y="70" width="250" height="8" as="geometry" />
        </mxCell>
        <mxCell id="KDYL_TLp4vgdS7d9_X7m-16" value="- getApplications() Javascript Object&lt;br style=&quot;border-color: var(--border-color);&quot;&gt;- getFundingAdverts() Javascript Object&lt;br&gt;+ acceptFundManagerApplication() void&lt;br&gt;+ denyFundManagerApplication() void&lt;br&gt;+ deleteFundingAdvert() void" style="text;strokeColor=none;fillColor=none;align=left;verticalAlign=top;spacingLeft=4;spacingRight=4;overflow=hidden;rotatable=0;points=[[0,0.5],[1,0.5]];portConstraint=eastwest;whiteSpace=wrap;html=1;" vertex="1" parent="KDYL_TLp4vgdS7d9_X7m-13">
          <mxGeometry y="78" width="250" height="92" as="geometry" />
        </mxCell>
        <mxCell id="KDYL_TLp4vgdS7d9_X7m-17" value="fundingManager" style="swimlane;fontStyle=1;align=center;verticalAlign=top;childLayout=stackLayout;horizontal=1;startSize=26;horizontalStack=0;resizeParent=1;resizeParentMax=0;resizeLast=0;collapsible=1;marginBottom=0;whiteSpace=wrap;html=1;" vertex="1" parent="1">
          <mxGeometry x="280" y="430" width="240" height="190" as="geometry" />
        </mxCell>
        <mxCell id="KDYL_TLp4vgdS7d9_X7m-18" value="- createdAdverts Javascript Object&lt;br&gt;- receivedApplications Javascript Object&lt;br&gt;- acceptedApplications Javascript Object" style="text;strokeColor=none;fillColor=none;align=left;verticalAlign=top;spacingLeft=4;spacingRight=4;overflow=hidden;rotatable=0;points=[[0,0.5],[1,0.5]];portConstraint=eastwest;whiteSpace=wrap;html=1;" vertex="1" parent="KDYL_TLp4vgdS7d9_X7m-17">
          <mxGeometry y="26" width="240" height="64" as="geometry" />
        </mxCell>
        <mxCell id="KDYL_TLp4vgdS7d9_X7m-19" value="" style="line;strokeWidth=1;fillColor=none;align=left;verticalAlign=middle;spacingTop=-1;spacingLeft=3;spacingRight=3;rotatable=0;labelPosition=right;points=[];portConstraint=eastwest;strokeColor=inherit;" vertex="1" parent="KDYL_TLp4vgdS7d9_X7m-17">
          <mxGeometry y="90" width="240" height="8" as="geometry" />
        </mxCell>
        <mxCell id="KDYL_TLp4vgdS7d9_X7m-20" value="- getApplications() Javascript Object&lt;br style=&quot;border-color: var(--border-color);&quot;&gt;- getAcceptedApplications() Javascript Object&lt;br&gt;+ createAdvert() void&lt;br&gt;+ acceptApplication() void" style="text;strokeColor=none;fillColor=none;align=left;verticalAlign=top;spacingLeft=4;spacingRight=4;overflow=hidden;rotatable=0;points=[[0,0.5],[1,0.5]];portConstraint=eastwest;whiteSpace=wrap;html=1;" vertex="1" parent="KDYL_TLp4vgdS7d9_X7m-17">
          <mxGeometry y="98" width="240" height="92" as="geometry" />
        </mxCell>
        <mxCell id="KDYL_TLp4vgdS7d9_X7m-21" value="applicant" style="swimlane;fontStyle=1;align=center;verticalAlign=top;childLayout=stackLayout;horizontal=1;startSize=26;horizontalStack=0;resizeParent=1;resizeParentMax=0;resizeLast=0;collapsible=1;marginBottom=0;whiteSpace=wrap;html=1;" vertex="1" parent="1">
          <mxGeometry x="540" y="496" width="260" height="160" as="geometry" />
        </mxCell>
        <mxCell id="KDYL_TLp4vgdS7d9_X7m-22" value="- sentApplications Javascript Object&lt;br&gt;- acceptedApplications Javascript Object" style="text;strokeColor=none;fillColor=none;align=left;verticalAlign=top;spacingLeft=4;spacingRight=4;overflow=hidden;rotatable=0;points=[[0,0.5],[1,0.5]];portConstraint=eastwest;whiteSpace=wrap;html=1;" vertex="1" parent="KDYL_TLp4vgdS7d9_X7m-21">
          <mxGeometry y="26" width="260" height="44" as="geometry" />
        </mxCell>
        <mxCell id="KDYL_TLp4vgdS7d9_X7m-23" value="" style="line;strokeWidth=1;fillColor=none;align=left;verticalAlign=middle;spacingTop=-1;spacingLeft=3;spacingRight=3;rotatable=0;labelPosition=right;points=[];portConstraint=eastwest;strokeColor=inherit;" vertex="1" parent="KDYL_TLp4vgdS7d9_X7m-21">
          <mxGeometry y="70" width="260" height="8" as="geometry" />
        </mxCell>
        <mxCell id="KDYL_TLp4vgdS7d9_X7m-24" value="- getAdverts() Javascript Object&lt;br&gt;- getAcceptedApplications() Javascript Object&lt;br&gt;+ filterAdverts() void&lt;br&gt;+ sendApplication() void" style="text;strokeColor=none;fillColor=none;align=left;verticalAlign=top;spacingLeft=4;spacingRight=4;overflow=hidden;rotatable=0;points=[[0,0.5],[1,0.5]];portConstraint=eastwest;whiteSpace=wrap;html=1;" vertex="1" parent="KDYL_TLp4vgdS7d9_X7m-21">
          <mxGeometry y="78" width="260" height="82" as="geometry" />
        </mxCell>
        <mxCell id="KDYL_TLp4vgdS7d9_X7m-28" value="" style="endArrow=classic;html=1;rounded=0;entryX=1;entryY=0.038;entryDx=0;entryDy=0;entryPerimeter=0;exitX=-0.031;exitY=0.357;exitDx=0;exitDy=0;exitPerimeter=0;" edge="1" parent="1" source="KDYL_TLp4vgdS7d9_X7m-12" target="KDYL_TLp4vgdS7d9_X7m-14">
          <mxGeometry width="50" height="50" relative="1" as="geometry">
            <mxPoint x="480" y="370" as="sourcePoint" />
            <mxPoint x="530" y="320" as="targetPoint" />
          </mxGeometry>
        </mxCell>
        <mxCell id="KDYL_TLp4vgdS7d9_X7m-29" value="If role = admin" style="edgeLabel;html=1;align=center;verticalAlign=middle;resizable=0;points=[];" vertex="1" connectable="0" parent="KDYL_TLp4vgdS7d9_X7m-28">
          <mxGeometry x="0.0391" y="-5" relative="1" as="geometry">
            <mxPoint y="-1" as="offset" />
          </mxGeometry>
        </mxCell>
        <mxCell id="KDYL_TLp4vgdS7d9_X7m-30" value="" style="endArrow=classic;html=1;rounded=0;exitX=0.038;exitY=1.048;exitDx=0;exitDy=0;exitPerimeter=0;entryX=0.825;entryY=-0.047;entryDx=0;entryDy=0;entryPerimeter=0;" edge="1" parent="1" source="KDYL_TLp4vgdS7d9_X7m-12" target="KDYL_TLp4vgdS7d9_X7m-17">
          <mxGeometry width="50" height="50" relative="1" as="geometry">
            <mxPoint x="460" y="440" as="sourcePoint" />
            <mxPoint x="510" y="390" as="targetPoint" />
          </mxGeometry>
        </mxCell>
        <mxCell id="KDYL_TLp4vgdS7d9_X7m-31" value="if role = funding manager" style="edgeLabel;html=1;align=center;verticalAlign=middle;resizable=0;points=[];" vertex="1" connectable="0" parent="KDYL_TLp4vgdS7d9_X7m-30">
          <mxGeometry x="-0.218" y="-1" relative="1" as="geometry">
            <mxPoint as="offset" />
          </mxGeometry>
        </mxCell>
        <mxCell id="KDYL_TLp4vgdS7d9_X7m-32" value="" style="endArrow=classic;html=1;rounded=0;exitX=0.688;exitY=1.071;exitDx=0;exitDy=0;exitPerimeter=0;entryX=0.438;entryY=0.047;entryDx=0;entryDy=0;entryPerimeter=0;" edge="1" parent="1" source="KDYL_TLp4vgdS7d9_X7m-12" target="KDYL_TLp4vgdS7d9_X7m-21">
          <mxGeometry width="50" height="50" relative="1" as="geometry">
            <mxPoint x="620" y="430" as="sourcePoint" />
            <mxPoint x="670" y="380" as="targetPoint" />
          </mxGeometry>
        </mxCell>
        <mxCell id="KDYL_TLp4vgdS7d9_X7m-33" value="if role = applicant" style="edgeLabel;html=1;align=center;verticalAlign=middle;resizable=0;points=[];" vertex="1" connectable="0" parent="KDYL_TLp4vgdS7d9_X7m-32">
          <mxGeometry x="-0.2567" y="-3" relative="1" as="geometry">
            <mxPoint as="offset" />
          </mxGeometry>
        </mxCell>
      </root>
    </mxGraphModel>
  </diagram>
</mxfile>
